<?xml version="1.0" standalone="no"?>
<!DOCTYPE svg PUBLIC "-//W3C//DTD SVG 20010904//EN"
 "http://www.w3.org/TR/2001/REC-SVG-20010904/DTD/svg10.dtd">
<svg version="1.0" xmlns="http://www.w3.org/2000/svg"
 width="1200.000000pt" height="1200.000000pt" viewBox="0 0 1200.000000 1200.000000"
 preserveAspectRatio="xMidYMid meet">

<g transform="translate(0.000000,1200.000000) scale(0.100000,-0.100000)"
fill="#000000" stroke="none">
<path d="M3901 6735 l0 -476 82 3 81 3 0 183 0 182 55 0 56 0 93 -185 92 -185
85 0 c47 0 85 4 85 9 0 5 -40 91 -90 190 -49 100 -90 184 -90 186 0 2 15 11
34 20 97 46 150 138 151 260 0 137 -59 226 -178 266 -42 14 -90 18 -254 19
l-202 1 0 -476z m397 314 c93 -32 97 -210 7 -253 -23 -11 -63 -16 -137 -16
l-105 0 1 140 0 140 101 0 c56 0 116 -5 133 -11z"/>
<path d="M6804 7183 c3 -16 8 -77 11 -137 4 -60 9 -116 10 -125 2 -9 4 -35 4
-58 l1 -43 65 0 65 0 1 33 c0 17 2 39 3 47 2 8 7 62 10 120 4 58 10 124 12
148 l4 42 -95 0 -95 0 4 -27z"/>
<path d="M4985 6941 c-33 -10 -79 -27 -102 -39 l-42 -22 16 -37 c8 -21 19 -48
24 -60 l8 -21 60 24 c112 45 243 41 275 -9 17 -26 28 -85 17 -91 -4 -3 -28 1
-52 8 -72 22 -177 18 -244 -9 -69 -28 -101 -57 -126 -110 -39 -83 -20 -195 43
-256 77 -75 233 -91 333 -35 46 25 55 24 50 -7 -3 -16 4 -18 73 -15 l77 3 0
243 c1 148 -3 259 -10 286 -16 61 -55 110 -112 137 -63 31 -200 35 -288 10z
m230 -381 c25 -13 29 -21 30 -55 2 -48 -31 -85 -93 -103 -108 -33 -202 6 -202
82 0 64 58 96 165 92 39 -1 83 -9 100 -16z"/>
<path d="M5844 6945 c-16 -9 -39 -30 -50 -48 l-19 -32 -3 43 -3 42 -65 0 -64
0 0 -345 0 -345 70 0 70 0 1 225 c1 124 3 230 4 235 1 6 3 17 4 25 2 25 48 65
75 65 28 0 52 -29 60 -70 2 -14 5 -127 5 -252 l1 -228 70 0 69 0 3 244 c3 230
4 246 24 273 14 18 32 29 53 31 54 6 61 -27 61 -308 l0 -240 71 0 70 0 -3 288
c-3 267 -4 290 -24 326 -28 54 -63 78 -121 83 -57 6 -116 -19 -147 -62 l-20
-26 -35 41 c-30 35 -43 43 -81 46 -29 3 -56 -1 -76 -11z"/>
<path d="M7669 6944 c-55 -17 -123 -73 -137 -112 -14 -40 -7 -107 15 -145 26
-43 77 -76 208 -131 61 -26 120 -57 133 -68 53 -51 1 -110 -93 -107 -58 2
-106 19 -152 55 l-34 26 -49 -44 c-26 -23 -48 -46 -49 -50 -1 -4 20 -23 46
-43 119 -91 323 -99 432 -18 70 53 88 166 38 242 -27 40 -102 84 -235 137 -98
39 -127 63 -118 97 4 19 16 29 44 36 62 18 106 13 168 -19 64 -32 61 -33 129
24 l29 25 -28 30 c-65 68 -233 99 -347 65z"/>
<path d="M5144 5572 c-36 -28 -44 -57 -44 -146 l0 -86 900 0 900 0 0 86 c0 89
-8 118 -44 146 -19 16 -80 18 -856 18 -776 0 -837 -2 -856 -18z"/>
<path d="M5100 4652 c0 -467 3 -621 12 -630 17 -17 1759 -17 1776 0 9 9 12
163 12 630 l0 618 -900 0 -900 0 0 -618z m677 206 c68 -68 123 -126 123 -130
0 -5 -54 -61 -121 -126 -122 -118 -151 -135 -173 -100 -9 15 5 34 94 123 l105
105 -98 98 c-108 108 -123 146 -62 151 5 1 65 -54 132 -121z m641 -320 c15
-15 15 -45 0 -54 -7 -4 -120 -8 -251 -8 -182 -1 -244 2 -258 12 -23 16 -24 26
-3 46 13 14 51 16 258 16 175 0 245 -3 254 -12z"/>
</g>
</svg>
